<mxfile host="65bd71144e">
    <diagram id="CnQnBmzaKuSAoapPF1UE" name="Page-1">
        <mxGraphModel dx="2493" dy="2052" grid="1" gridSize="10" guides="1" tooltips="1" connect="1" arrows="1" fold="1" page="1" pageScale="1" pageWidth="850" pageHeight="1100" background="#ffffff" math="0" shadow="0">
            <root>
                <mxCell id="0"/>
                <mxCell id="1" parent="0"/>
                <mxCell id="68" style="edgeStyle=none;html=1;exitX=0.5;exitY=1;exitDx=0;exitDy=0;strokeColor=#000000;fontSize=22;fontColor=#000000;" edge="1" parent="1" source="8" target="63">
                    <mxGeometry relative="1" as="geometry"/>
                </mxCell>
                <mxCell id="102" style="edgeStyle=none;html=1;exitX=0;exitY=1;exitDx=0;exitDy=0;entryX=0.25;entryY=1;entryDx=0;entryDy=0;strokeColor=#000000;fontSize=22;fontColor=#000000;" edge="1" parent="1" source="8" target="96">
                    <mxGeometry relative="1" as="geometry"/>
                </mxCell>
                <mxCell id="103" style="edgeStyle=none;html=1;exitX=1;exitY=1;exitDx=0;exitDy=0;entryX=0.5;entryY=1;entryDx=0;entryDy=0;strokeColor=#000000;fontSize=22;fontColor=#000000;" edge="1" parent="1" source="8" target="100">
                    <mxGeometry relative="1" as="geometry"/>
                </mxCell>
                <mxCell id="8" value="" style="ellipse;whiteSpace=wrap;html=1;aspect=fixed;sketch=0;fillColor=#f5f5f5;fontColor=#333333;strokeColor=#666666;" vertex="1" parent="1">
                    <mxGeometry x="-175" y="150" width="80" height="80" as="geometry"/>
                </mxCell>
                <mxCell id="82" style="edgeStyle=none;html=1;exitX=0.5;exitY=0;exitDx=0;exitDy=0;strokeColor=#000000;fontSize=22;fontColor=#000000;entryX=0.5;entryY=0;entryDx=0;entryDy=0;" edge="1" parent="1" source="14" target="65">
                    <mxGeometry relative="1" as="geometry">
                        <mxPoint x="252" y="400" as="targetPoint"/>
                    </mxGeometry>
                </mxCell>
                <mxCell id="14" value="" style="rounded=0;whiteSpace=wrap;html=1;sketch=0;rotation=-180;" vertex="1" parent="1">
                    <mxGeometry x="197.5" y="282.5" width="110" height="25" as="geometry"/>
                </mxCell>
                <mxCell id="21" value="&lt;font style=&quot;font-size: 22px;&quot; color=&quot;#000000&quot;&gt;&lt;b&gt;Print&lt;/b&gt;&lt;/font&gt;" style="text;html=1;align=center;verticalAlign=middle;resizable=0;points=[];autosize=1;strokeColor=none;fillColor=none;" vertex="1" parent="1">
                    <mxGeometry x="-70" y="82.5" width="70" height="40" as="geometry"/>
                </mxCell>
                <mxCell id="22" value="&lt;font style=&quot;font-size: 22px;&quot; color=&quot;#000000&quot;&gt;&lt;b&gt;Recv&lt;/b&gt;&lt;/font&gt;" style="text;html=1;align=center;verticalAlign=middle;resizable=0;points=[];autosize=1;strokeColor=none;fillColor=none;" vertex="1" parent="1">
                    <mxGeometry x="307.5" y="275" width="80" height="40" as="geometry"/>
                </mxCell>
                <mxCell id="23" value="&lt;font style=&quot;font-size: 22px;&quot; color=&quot;#000000&quot;&gt;&lt;b&gt;Send&lt;/b&gt;&lt;/font&gt;" style="text;html=1;align=center;verticalAlign=middle;resizable=0;points=[];autosize=1;strokeColor=none;fillColor=none;" vertex="1" parent="1">
                    <mxGeometry x="-80" y="275" width="80" height="40" as="geometry"/>
                </mxCell>
                <mxCell id="38" style="edgeStyle=orthogonalEdgeStyle;html=1;exitX=0.5;exitY=1;exitDx=0;exitDy=0;entryX=0.5;entryY=1;entryDx=0;entryDy=0;strokeColor=#000000;fontSize=22;fontColor=#000000;" edge="1" parent="1" source="35" target="14">
                    <mxGeometry relative="1" as="geometry"/>
                </mxCell>
                <mxCell id="35" value="" style="ellipse;whiteSpace=wrap;html=1;aspect=fixed;sketch=0;fillColor=#f5f5f5;fontColor=#333333;strokeColor=#666666;" vertex="1" parent="1">
                    <mxGeometry x="212.5" y="142.5" width="80" height="80" as="geometry"/>
                </mxCell>
                <mxCell id="45" value="" style="rounded=0;whiteSpace=wrap;html=1;sketch=0;rotation=-180;" vertex="1" parent="1">
                    <mxGeometry x="425" y="282.5" width="110" height="25" as="geometry"/>
                </mxCell>
                <mxCell id="46" style="edgeStyle=orthogonalEdgeStyle;html=1;exitX=0.5;exitY=1;exitDx=0;exitDy=0;entryX=0.5;entryY=1;entryDx=0;entryDy=0;strokeColor=#000000;fontSize=22;fontColor=#000000;" edge="1" source="47" target="45" parent="1">
                    <mxGeometry relative="1" as="geometry"/>
                </mxCell>
                <mxCell id="47" value="" style="ellipse;whiteSpace=wrap;html=1;aspect=fixed;sketch=0;fillColor=#f5f5f5;fontColor=#333333;strokeColor=#666666;" vertex="1" parent="1">
                    <mxGeometry x="440" y="142.5" width="80" height="80" as="geometry"/>
                </mxCell>
                <mxCell id="48" value="" style="rounded=0;whiteSpace=wrap;html=1;sketch=0;rotation=-180;" vertex="1" parent="1">
                    <mxGeometry x="725" y="282.5" width="110" height="25" as="geometry"/>
                </mxCell>
                <mxCell id="49" style="edgeStyle=orthogonalEdgeStyle;html=1;exitX=0.5;exitY=1;exitDx=0;exitDy=0;entryX=0.5;entryY=1;entryDx=0;entryDy=0;strokeColor=#000000;fontSize=22;fontColor=#000000;" edge="1" source="50" target="48" parent="1">
                    <mxGeometry relative="1" as="geometry"/>
                </mxCell>
                <mxCell id="50" value="" style="ellipse;whiteSpace=wrap;html=1;aspect=fixed;sketch=0;fillColor=#f5f5f5;fontColor=#333333;strokeColor=#666666;" vertex="1" parent="1">
                    <mxGeometry x="740" y="142.5" width="80" height="80" as="geometry"/>
                </mxCell>
                <mxCell id="51" value="" style="ellipse;whiteSpace=wrap;html=1;aspect=fixed;sketch=0;fontSize=22;fontColor=#000000;strokeColor=#000000;" vertex="1" parent="1">
                    <mxGeometry x="232.5" y="162.5" width="40" height="40" as="geometry"/>
                </mxCell>
                <mxCell id="52" value="" style="ellipse;whiteSpace=wrap;html=1;aspect=fixed;sketch=0;fontSize=22;fontColor=#000000;strokeColor=#000000;" vertex="1" parent="1">
                    <mxGeometry x="460" y="162.5" width="40" height="40" as="geometry"/>
                </mxCell>
                <mxCell id="53" value="" style="ellipse;whiteSpace=wrap;html=1;aspect=fixed;sketch=0;fontSize=22;fontColor=#000000;strokeColor=#000000;" vertex="1" parent="1">
                    <mxGeometry x="760" y="162.5" width="40" height="40" as="geometry"/>
                </mxCell>
                <mxCell id="54" value="&lt;font style=&quot;font-size: 22px;&quot; color=&quot;#000000&quot;&gt;&lt;b&gt;Recv&lt;/b&gt;&lt;/font&gt;" style="text;html=1;align=center;verticalAlign=middle;resizable=0;points=[];autosize=1;strokeColor=none;fillColor=none;" vertex="1" parent="1">
                    <mxGeometry x="550" y="275" width="80" height="40" as="geometry"/>
                </mxCell>
                <mxCell id="55" value="&lt;font style=&quot;font-size: 22px;&quot; color=&quot;#000000&quot;&gt;&lt;b&gt;Recv&lt;/b&gt;&lt;/font&gt;" style="text;html=1;align=center;verticalAlign=middle;resizable=0;points=[];autosize=1;strokeColor=none;fillColor=none;" vertex="1" parent="1">
                    <mxGeometry x="850" y="275" width="80" height="40" as="geometry"/>
                </mxCell>
                <mxCell id="57" value="&lt;font color=&quot;#000000&quot;&gt;&lt;span style=&quot;font-size: 22px;&quot;&gt;&lt;b&gt;Процесс 1&lt;/b&gt;&lt;/span&gt;&lt;/font&gt;" style="text;html=1;align=center;verticalAlign=middle;resizable=0;points=[];autosize=1;strokeColor=none;fillColor=none;" vertex="1" parent="1">
                    <mxGeometry x="187.5" y="62.5" width="130" height="40" as="geometry"/>
                </mxCell>
                <mxCell id="58" value="&lt;font color=&quot;#000000&quot;&gt;&lt;span style=&quot;font-size: 22px;&quot;&gt;&lt;b&gt;Процесс 2&lt;/b&gt;&lt;/span&gt;&lt;/font&gt;" style="text;html=1;align=center;verticalAlign=middle;resizable=0;points=[];autosize=1;strokeColor=none;fillColor=none;" vertex="1" parent="1">
                    <mxGeometry x="405" y="62.5" width="130" height="40" as="geometry"/>
                </mxCell>
                <mxCell id="59" value="&lt;font color=&quot;#000000&quot;&gt;&lt;span style=&quot;font-size: 22px;&quot;&gt;&lt;b&gt;Процесс n&lt;/b&gt;&lt;/span&gt;&lt;/font&gt;" style="text;html=1;align=center;verticalAlign=middle;resizable=0;points=[];autosize=1;strokeColor=none;fillColor=none;" vertex="1" parent="1">
                    <mxGeometry x="710" y="62.5" width="140" height="40" as="geometry"/>
                </mxCell>
                <mxCell id="78" style="edgeStyle=none;html=1;exitX=0.5;exitY=0;exitDx=0;exitDy=0;strokeColor=#000000;fontSize=22;fontColor=#000000;" edge="1" parent="1" source="63" target="66">
                    <mxGeometry relative="1" as="geometry"/>
                </mxCell>
                <mxCell id="63" value="" style="rounded=0;whiteSpace=wrap;html=1;sketch=0;rotation=-180;" vertex="1" parent="1">
                    <mxGeometry x="-190" y="282.5" width="110" height="25" as="geometry"/>
                </mxCell>
                <mxCell id="89" style="edgeStyle=none;html=1;exitX=0.5;exitY=1;exitDx=0;exitDy=0;entryX=0.5;entryY=1;entryDx=0;entryDy=0;strokeColor=#000000;fontSize=22;fontColor=#000000;" edge="1" parent="1" source="65" target="88">
                    <mxGeometry relative="1" as="geometry">
                        <mxPoint x="252.5" y="540" as="sourcePoint"/>
                    </mxGeometry>
                </mxCell>
                <mxCell id="65" value="" style="ellipse;whiteSpace=wrap;html=1;aspect=fixed;sketch=0;fillColor=#f5f5f5;fontColor=#333333;strokeColor=#666666;" vertex="1" parent="1">
                    <mxGeometry x="212.5" y="400" width="80" height="80" as="geometry"/>
                </mxCell>
                <mxCell id="79" style="edgeStyle=none;html=1;exitX=1;exitY=0.5;exitDx=0;exitDy=0;entryX=1;entryY=0.5;entryDx=0;entryDy=0;strokeColor=#000000;fontSize=22;fontColor=#000000;" edge="1" parent="1" source="97" target="14">
                    <mxGeometry relative="1" as="geometry"/>
                </mxCell>
                <mxCell id="80" style="edgeStyle=none;html=1;exitX=1;exitY=0.5;exitDx=0;exitDy=0;entryX=1;entryY=0.5;entryDx=0;entryDy=0;strokeColor=#000000;fontSize=22;fontColor=#000000;" edge="1" parent="1" source="66" target="45">
                    <mxGeometry relative="1" as="geometry"/>
                </mxCell>
                <mxCell id="81" style="edgeStyle=none;html=1;entryX=1;entryY=0.25;entryDx=0;entryDy=0;strokeColor=#000000;fontSize=22;fontColor=#000000;exitX=1;exitY=0.5;exitDx=0;exitDy=0;" edge="1" parent="1" source="101" target="48">
                    <mxGeometry relative="1" as="geometry">
                        <mxPoint x="-95" y="400" as="sourcePoint"/>
                    </mxGeometry>
                </mxCell>
                <mxCell id="66" value="" style="ellipse;whiteSpace=wrap;html=1;aspect=fixed;sketch=0;fillColor=#f5f5f5;fontColor=#333333;strokeColor=#666666;" vertex="1" parent="1">
                    <mxGeometry x="-175" y="360" width="80" height="80" as="geometry"/>
                </mxCell>
                <mxCell id="69" value="&lt;font color=&quot;#000000&quot;&gt;&lt;span style=&quot;font-size: 22px;&quot;&gt;&lt;b&gt;Процесс 0&lt;/b&gt;&lt;/span&gt;&lt;/font&gt;" style="text;html=1;align=center;verticalAlign=middle;resizable=0;points=[];autosize=1;strokeColor=none;fillColor=none;" vertex="1" parent="1">
                    <mxGeometry x="-200" y="-80" width="130" height="40" as="geometry"/>
                </mxCell>
                <mxCell id="84" style="edgeStyle=none;html=1;exitX=0.5;exitY=0;exitDx=0;exitDy=0;strokeColor=#000000;fontSize=22;fontColor=#000000;entryX=0.5;entryY=0;entryDx=0;entryDy=0;" edge="1" target="85" parent="1">
                    <mxGeometry relative="1" as="geometry">
                        <mxPoint x="479.5" y="400" as="targetPoint"/>
                        <mxPoint x="480" y="307.5" as="sourcePoint"/>
                    </mxGeometry>
                </mxCell>
                <mxCell id="85" value="" style="ellipse;whiteSpace=wrap;html=1;aspect=fixed;sketch=0;fillColor=#f5f5f5;fontColor=#333333;strokeColor=#666666;" vertex="1" parent="1">
                    <mxGeometry x="440" y="400" width="80" height="80" as="geometry"/>
                </mxCell>
                <mxCell id="86" style="edgeStyle=none;html=1;exitX=0.5;exitY=0;exitDx=0;exitDy=0;strokeColor=#000000;fontSize=22;fontColor=#000000;entryX=0.5;entryY=0;entryDx=0;entryDy=0;" edge="1" target="87" parent="1">
                    <mxGeometry relative="1" as="geometry">
                        <mxPoint x="779.5" y="400" as="targetPoint"/>
                        <mxPoint x="780" y="307.5" as="sourcePoint"/>
                    </mxGeometry>
                </mxCell>
                <mxCell id="87" value="" style="ellipse;whiteSpace=wrap;html=1;aspect=fixed;sketch=0;fillColor=#f5f5f5;fontColor=#333333;strokeColor=#666666;" vertex="1" parent="1">
                    <mxGeometry x="740" y="400" width="80" height="80" as="geometry"/>
                </mxCell>
                <mxCell id="166" style="edgeStyle=none;html=1;exitX=1;exitY=0.25;exitDx=0;exitDy=0;entryX=1;entryY=0.5;entryDx=0;entryDy=0;strokeColor=#000000;fontSize=22;fontColor=#000000;" edge="1" parent="1" source="88" target="162">
                    <mxGeometry relative="1" as="geometry"/>
                </mxCell>
                <mxCell id="88" value="" style="rounded=0;whiteSpace=wrap;html=1;sketch=0;rotation=-180;" vertex="1" parent="1">
                    <mxGeometry x="197.5" y="660" width="110" height="25" as="geometry"/>
                </mxCell>
                <mxCell id="90" style="edgeStyle=none;html=1;exitX=0.5;exitY=1;exitDx=0;exitDy=0;entryX=0.5;entryY=1;entryDx=0;entryDy=0;strokeColor=#000000;fontSize=22;fontColor=#000000;" edge="1" target="91" parent="1" source="85">
                    <mxGeometry relative="1" as="geometry">
                        <mxPoint x="480" y="540" as="sourcePoint"/>
                    </mxGeometry>
                </mxCell>
                <mxCell id="149" style="edgeStyle=none;html=1;exitX=1;exitY=0.5;exitDx=0;exitDy=0;entryX=0;entryY=0.5;entryDx=0;entryDy=0;strokeColor=#000000;fontSize=22;fontColor=#000000;startArrow=none;" edge="1" parent="1" source="159" target="143">
                    <mxGeometry relative="1" as="geometry"/>
                </mxCell>
                <mxCell id="161" style="edgeStyle=none;html=1;exitX=1;exitY=0.5;exitDx=0;exitDy=0;strokeColor=#000000;fontSize=22;fontColor=#000000;" edge="1" parent="1" source="91" target="159">
                    <mxGeometry relative="1" as="geometry"/>
                </mxCell>
                <mxCell id="91" value="" style="rounded=0;whiteSpace=wrap;html=1;sketch=0;rotation=-180;" vertex="1" parent="1">
                    <mxGeometry x="425" y="660" width="110" height="25" as="geometry"/>
                </mxCell>
                <mxCell id="92" style="edgeStyle=none;html=1;exitX=0.5;exitY=1;exitDx=0;exitDy=0;entryX=0.5;entryY=1;entryDx=0;entryDy=0;strokeColor=#000000;fontSize=22;fontColor=#000000;" edge="1" target="93" parent="1" source="87">
                    <mxGeometry relative="1" as="geometry">
                        <mxPoint x="780" y="540" as="sourcePoint"/>
                    </mxGeometry>
                </mxCell>
                <mxCell id="158" style="edgeStyle=none;html=1;exitX=1;exitY=0.5;exitDx=0;exitDy=0;entryX=0.958;entryY=0.688;entryDx=0;entryDy=0;entryPerimeter=0;strokeColor=#000000;fontSize=22;fontColor=#000000;" edge="1" parent="1" source="93" target="156">
                    <mxGeometry relative="1" as="geometry"/>
                </mxCell>
                <mxCell id="93" value="" style="rounded=0;whiteSpace=wrap;html=1;sketch=0;rotation=-180;" vertex="1" parent="1">
                    <mxGeometry x="725" y="652.5" width="110" height="25" as="geometry"/>
                </mxCell>
                <mxCell id="94" value="&lt;font style=&quot;font-size: 22px;&quot; color=&quot;#000000&quot;&gt;&lt;b&gt;Send&lt;/b&gt;&lt;/font&gt;" style="text;html=1;align=center;verticalAlign=middle;resizable=0;points=[];autosize=1;strokeColor=none;fillColor=none;" vertex="1" parent="1">
                    <mxGeometry x="-280" y="275" width="80" height="40" as="geometry"/>
                </mxCell>
                <mxCell id="95" style="edgeStyle=none;html=1;exitX=0.5;exitY=0;exitDx=0;exitDy=0;strokeColor=#000000;fontSize=22;fontColor=#000000;" edge="1" source="96" target="97" parent="1">
                    <mxGeometry relative="1" as="geometry"/>
                </mxCell>
                <mxCell id="132" style="edgeStyle=none;html=1;entryX=0.5;entryY=0;entryDx=0;entryDy=0;strokeColor=#000000;fontSize=22;fontColor=#000000;" edge="1" parent="1" source="96" target="97">
                    <mxGeometry relative="1" as="geometry"/>
                </mxCell>
                <mxCell id="96" value="" style="rounded=0;whiteSpace=wrap;html=1;sketch=0;rotation=-180;" vertex="1" parent="1">
                    <mxGeometry x="-390" y="282.5" width="110" height="25" as="geometry"/>
                </mxCell>
                <mxCell id="140" style="edgeStyle=none;html=1;exitX=0.5;exitY=1;exitDx=0;exitDy=0;entryX=0.5;entryY=1;entryDx=0;entryDy=0;strokeColor=#000000;fontSize=22;fontColor=#000000;" edge="1" parent="1" source="97" target="138">
                    <mxGeometry relative="1" as="geometry"/>
                </mxCell>
                <mxCell id="97" value="" style="ellipse;whiteSpace=wrap;html=1;aspect=fixed;sketch=0;fillColor=#f5f5f5;fontColor=#333333;strokeColor=#666666;" vertex="1" parent="1">
                    <mxGeometry x="-375" y="360" width="80" height="80" as="geometry"/>
                </mxCell>
                <mxCell id="98" value="&lt;font style=&quot;font-size: 22px;&quot; color=&quot;#000000&quot;&gt;&lt;b&gt;Send&lt;/b&gt;&lt;/font&gt;" style="text;html=1;align=center;verticalAlign=middle;resizable=0;points=[];autosize=1;strokeColor=none;fillColor=none;" vertex="1" parent="1">
                    <mxGeometry x="107.5" y="275" width="80" height="40" as="geometry"/>
                </mxCell>
                <mxCell id="99" style="edgeStyle=none;html=1;exitX=0.5;exitY=0;exitDx=0;exitDy=0;strokeColor=#000000;fontSize=22;fontColor=#000000;" edge="1" source="100" target="101" parent="1">
                    <mxGeometry relative="1" as="geometry"/>
                </mxCell>
                <mxCell id="100" value="" style="rounded=0;whiteSpace=wrap;html=1;sketch=0;rotation=-180;" vertex="1" parent="1">
                    <mxGeometry x="-2.5" y="282.5" width="110" height="25" as="geometry"/>
                </mxCell>
                <mxCell id="101" value="" style="ellipse;whiteSpace=wrap;html=1;aspect=fixed;sketch=0;fillColor=#f5f5f5;fontColor=#333333;strokeColor=#666666;" vertex="1" parent="1">
                    <mxGeometry x="12.5" y="360" width="80" height="80" as="geometry"/>
                </mxCell>
                <mxCell id="109" style="edgeStyle=none;html=1;exitX=0.5;exitY=1;exitDx=0;exitDy=0;strokeColor=#000000;fontSize=22;fontColor=#000000;" edge="1" parent="1" source="104">
                    <mxGeometry relative="1" as="geometry">
                        <mxPoint x="-134.66666666666652" y="90" as="targetPoint"/>
                    </mxGeometry>
                </mxCell>
                <mxCell id="104" value="" style="ellipse;whiteSpace=wrap;html=1;aspect=fixed;sketch=0;fillColor=#f5f5f5;fontColor=#333333;strokeColor=#666666;" vertex="1" parent="1">
                    <mxGeometry x="-175" y="-30" width="80" height="80" as="geometry"/>
                </mxCell>
                <mxCell id="105" value="" style="ellipse;whiteSpace=wrap;html=1;aspect=fixed;sketch=0;fontSize=22;fontColor=#000000;strokeColor=#000000;" vertex="1" parent="1">
                    <mxGeometry x="-155" y="-10" width="40" height="40" as="geometry"/>
                </mxCell>
                <mxCell id="110" style="edgeStyle=none;html=1;exitX=0.5;exitY=0;exitDx=0;exitDy=0;entryX=0.5;entryY=0;entryDx=0;entryDy=0;strokeColor=#000000;fontSize=22;fontColor=#000000;" edge="1" parent="1" source="107" target="8">
                    <mxGeometry relative="1" as="geometry"/>
                </mxCell>
                <mxCell id="107" value="" style="rounded=0;whiteSpace=wrap;html=1;sketch=0;rotation=-180;" vertex="1" parent="1">
                    <mxGeometry x="-190" y="90" width="110" height="25" as="geometry"/>
                </mxCell>
                <mxCell id="129" value="&lt;font style=&quot;font-size: 22px;&quot; color=&quot;#000000&quot;&gt;&lt;b&gt;Send&lt;/b&gt;&lt;/font&gt;" style="text;html=1;align=center;verticalAlign=middle;resizable=0;points=[];autosize=1;strokeColor=none;fillColor=none;" vertex="1" parent="1">
                    <mxGeometry x="307.5" y="652.5" width="80" height="40" as="geometry"/>
                </mxCell>
                <mxCell id="130" value="&lt;font style=&quot;font-size: 22px;&quot; color=&quot;#000000&quot;&gt;&lt;b&gt;Send&lt;/b&gt;&lt;/font&gt;" style="text;html=1;align=center;verticalAlign=middle;resizable=0;points=[];autosize=1;strokeColor=none;fillColor=none;" vertex="1" parent="1">
                    <mxGeometry x="550" y="652.5" width="80" height="40" as="geometry"/>
                </mxCell>
                <mxCell id="131" value="&lt;font style=&quot;font-size: 22px;&quot; color=&quot;#000000&quot;&gt;&lt;b&gt;Send&lt;/b&gt;&lt;/font&gt;" style="text;html=1;align=center;verticalAlign=middle;resizable=0;points=[];autosize=1;strokeColor=none;fillColor=none;" vertex="1" parent="1">
                    <mxGeometry x="850" y="645" width="80" height="40" as="geometry"/>
                </mxCell>
                <mxCell id="136" style="edgeStyle=none;html=1;exitX=0.5;exitY=0;exitDx=0;exitDy=0;strokeColor=#000000;fontSize=22;fontColor=#000000;" edge="1" source="138" target="139" parent="1">
                    <mxGeometry relative="1" as="geometry"/>
                </mxCell>
                <mxCell id="138" value="" style="rounded=0;whiteSpace=wrap;html=1;sketch=0;rotation=-180;" vertex="1" parent="1">
                    <mxGeometry x="-390" y="500" width="110" height="25" as="geometry"/>
                </mxCell>
                <mxCell id="175" style="edgeStyle=none;html=1;exitX=0.5;exitY=1;exitDx=0;exitDy=0;entryX=0.5;entryY=1;entryDx=0;entryDy=0;strokeColor=#000000;fontSize=22;fontColor=#000000;" edge="1" parent="1" source="139" target="174">
                    <mxGeometry relative="1" as="geometry"/>
                </mxCell>
                <mxCell id="139" value="" style="ellipse;whiteSpace=wrap;html=1;aspect=fixed;sketch=0;fillColor=#f5f5f5;fontColor=#333333;strokeColor=#666666;" vertex="1" parent="1">
                    <mxGeometry x="-175" y="670" width="80" height="80" as="geometry"/>
                </mxCell>
                <mxCell id="142" style="edgeStyle=none;html=1;exitX=0.5;exitY=1;exitDx=0;exitDy=0;entryX=0.5;entryY=1;entryDx=0;entryDy=0;strokeColor=#000000;fontSize=22;fontColor=#000000;" edge="1" target="143" parent="1">
                    <mxGeometry relative="1" as="geometry">
                        <mxPoint x="-135" y="440" as="sourcePoint"/>
                    </mxGeometry>
                </mxCell>
                <mxCell id="146" style="edgeStyle=none;html=1;exitX=0.5;exitY=0;exitDx=0;exitDy=0;strokeColor=#000000;fontSize=22;fontColor=#000000;" edge="1" parent="1" source="143" target="139">
                    <mxGeometry relative="1" as="geometry"/>
                </mxCell>
                <mxCell id="143" value="" style="rounded=0;whiteSpace=wrap;html=1;sketch=0;rotation=-180;" vertex="1" parent="1">
                    <mxGeometry x="-190" y="500" width="110" height="25" as="geometry"/>
                </mxCell>
                <mxCell id="144" style="edgeStyle=none;html=1;exitX=0.5;exitY=1;exitDx=0;exitDy=0;entryX=0.5;entryY=1;entryDx=0;entryDy=0;strokeColor=#000000;fontSize=22;fontColor=#000000;" edge="1" target="145" parent="1">
                    <mxGeometry relative="1" as="geometry">
                        <mxPoint x="52.5" y="440" as="sourcePoint"/>
                    </mxGeometry>
                </mxCell>
                <mxCell id="147" style="edgeStyle=none;html=1;exitX=0.5;exitY=0;exitDx=0;exitDy=0;strokeColor=#000000;fontSize=22;fontColor=#000000;" edge="1" parent="1" source="145" target="139">
                    <mxGeometry relative="1" as="geometry"/>
                </mxCell>
                <mxCell id="145" value="" style="rounded=0;whiteSpace=wrap;html=1;sketch=0;rotation=-180;" vertex="1" parent="1">
                    <mxGeometry x="-2.5" y="500" width="110" height="25" as="geometry"/>
                </mxCell>
                <mxCell id="152" value="" style="edgeStyle=none;html=1;exitX=0;exitY=0;exitDx=0;exitDy=0;entryX=0;entryY=0.5;entryDx=0;entryDy=0;strokeColor=#000000;fontSize=22;fontColor=#000000;endArrow=none;startArrow=none;" edge="1" parent="1" source="162">
                    <mxGeometry relative="1" as="geometry">
                        <mxPoint x="197.5" y="568.75" as="sourcePoint"/>
                        <mxPoint x="-280" y="512.5" as="targetPoint"/>
                    </mxGeometry>
                </mxCell>
                <mxCell id="153" value="&lt;font style=&quot;font-size: 22px;&quot; color=&quot;#000000&quot;&gt;&lt;b&gt;Recv&lt;/b&gt;&lt;/font&gt;" style="text;html=1;align=center;verticalAlign=middle;resizable=0;points=[];autosize=1;strokeColor=none;fillColor=none;" vertex="1" parent="1">
                    <mxGeometry x="-82.5" y="492.5" width="80" height="40" as="geometry"/>
                </mxCell>
                <mxCell id="155" value="" style="edgeStyle=none;html=1;exitX=0;exitY=0.5;exitDx=0;exitDy=0;entryX=0;entryY=0.5;entryDx=0;entryDy=0;strokeColor=#000000;fontSize=22;fontColor=#000000;endArrow=none;" edge="1" parent="1" source="156" target="154">
                    <mxGeometry relative="1" as="geometry">
                        <mxPoint x="725" y="562.5" as="sourcePoint"/>
                        <mxPoint x="107.5" y="512.5" as="targetPoint"/>
                    </mxGeometry>
                </mxCell>
                <mxCell id="154" value="&lt;font style=&quot;font-size: 22px;&quot; color=&quot;#000000&quot;&gt;&lt;b&gt;Recv&lt;/b&gt;&lt;/font&gt;" style="text;html=1;align=center;verticalAlign=middle;resizable=0;points=[];autosize=1;strokeColor=none;fillColor=none;" vertex="1" parent="1">
                    <mxGeometry x="107.5" y="492.5" width="80" height="40" as="geometry"/>
                </mxCell>
                <mxCell id="156" value="" style="ellipse;whiteSpace=wrap;html=1;aspect=fixed;sketch=0;fillColor=#f5f5f5;fontColor=#333333;strokeColor=#666666;" vertex="1" parent="1">
                    <mxGeometry x="317.5" y="510" width="80" height="80" as="geometry"/>
                </mxCell>
                <mxCell id="159" value="" style="ellipse;whiteSpace=wrap;html=1;aspect=fixed;sketch=0;fillColor=#f5f5f5;fontColor=#333333;strokeColor=#666666;" vertex="1" parent="1">
                    <mxGeometry x="140" y="532.5" width="80" height="80" as="geometry"/>
                </mxCell>
                <mxCell id="162" value="" style="ellipse;whiteSpace=wrap;html=1;aspect=fixed;sketch=0;fillColor=#f5f5f5;fontColor=#333333;strokeColor=#666666;" vertex="1" parent="1">
                    <mxGeometry x="10" y="602.5" width="80" height="80" as="geometry"/>
                </mxCell>
                <mxCell id="174" value="" style="rounded=0;whiteSpace=wrap;html=1;sketch=0;rotation=-180;" vertex="1" parent="1">
                    <mxGeometry x="-190" y="797.5" width="110" height="25" as="geometry"/>
                </mxCell>
                <mxCell id="176" value="&lt;font style=&quot;font-size: 22px;&quot; color=&quot;#000000&quot;&gt;&lt;b&gt;Print&lt;/b&gt;&lt;/font&gt;" style="text;html=1;align=center;verticalAlign=middle;resizable=0;points=[];autosize=1;strokeColor=none;fillColor=none;" vertex="1" parent="1">
                    <mxGeometry x="-70" y="790" width="70" height="40" as="geometry"/>
                </mxCell>
                <mxCell id="177" value="&lt;font style=&quot;font-size: 22px;&quot; color=&quot;#000000&quot;&gt;&lt;b&gt;Recv&lt;/b&gt;&lt;/font&gt;" style="text;html=1;align=center;verticalAlign=middle;resizable=0;points=[];autosize=1;strokeColor=none;fillColor=none;" vertex="1" parent="1">
                    <mxGeometry x="-280" y="492.5" width="80" height="40" as="geometry"/>
                </mxCell>
            </root>
        </mxGraphModel>
    </diagram>
</mxfile>